HIERARCHY
ROOT Hips
{
    OFFSET   0.000000   0.000000   0.000000
    CHANNELS 6 Xposition Yposition Zposition Zrotation Xrotation Yrotation
    JOINT Chest
    {
        OFFSET   0.000000   8.007230   0.000000
        CHANNELS 3 Zrotation Xrotation Yrotation
        JOINT Chest2
        {
            OFFSET   0.000000  22.077100   0.000000
            CHANNELS 3 Zrotation Xrotation Yrotation
            JOINT Neck
            {
                OFFSET   0.000000  23.254800  -0.000021
                CHANNELS 3 Zrotation Xrotation Yrotation
                JOINT Head
                {
                    OFFSET   0.000000  14.370000   1.956610
                    CHANNELS 3 Zrotation Xrotation Yrotation
                    End Site
                    {
                        OFFSET   0.000000  19.566000   0.000000
                    }
                }
            }
            JOINT LeftCollar
            {
                OFFSET   3.911900  19.017000  -0.467063
                CHANNELS 3 Zrotation Xrotation Yrotation
                JOINT LeftShoulder
                {
                    OFFSET  10.383700   0.000000   0.000000
                    CHANNELS 3 Zrotation Xrotation Yrotation
                    JOINT LeftElbow
                    {
                        OFFSET  26.662100   0.001529   0.000325
                        CHANNELS 3 Zrotation Xrotation Yrotation
                        JOINT LeftWrist
                        {
                            OFFSET  28.869000  -0.000011  -0.000096
                            CHANNELS 3 Zrotation Xrotation Yrotation
                            JOINT LeftFinger0
                            {
                                OFFSET   2.044650  -2.323460   3.252850
                                CHANNELS 3 Zrotation Xrotation Yrotation
                                JOINT LeftFinger01
                                {
                                    OFFSET   3.088130   0.000000   0.000000
                                    CHANNELS 3 Zrotation Xrotation Yrotation
                                    JOINT LeftFinger02
                                    {
                                        OFFSET   2.639460   0.000000   0.000000
                                        CHANNELS 3 Zrotation Xrotation Yrotation
                                        End Site
                                        {
                                            OFFSET   2.582190   0.000000   0.000000
                                        }
                                    }
                                }
                            }
                            JOINT LeftFinger1
                            {
                                OFFSET   8.364480   0.000000   3.252850
                                CHANNELS 3 Zrotation Xrotation Yrotation
                                JOINT LeftFinger11
                                {
                                    OFFSET   4.646930   0.000000   0.000000
                                    CHANNELS 3 Zrotation Xrotation Yrotation
                                    JOINT LeftFinger12
                                    {
                                        OFFSET   2.323460   0.000000   0.000000
                                        CHANNELS 3 Zrotation Xrotation Yrotation
                                        End Site
                                        {
                                            OFFSET   2.273050   0.000000   0.000000
                                        }
                                    }
                                }
                            }
                            JOINT LeftFinger2
                            {
                                OFFSET   8.364480   0.000016   1.078090
                                CHANNELS 3 Zrotation Xrotation Yrotation
                                JOINT LeftFinger21
                                {
                                    OFFSET   5.111620   0.000000   0.000000
                                    CHANNELS 3 Zrotation Xrotation Yrotation
                                    JOINT LeftFinger22
                                    {
                                        OFFSET   2.788160   0.000017   0.000000
                                        CHANNELS 3 Zrotation Xrotation Yrotation
                                        End Site
                                        {
                                            OFFSET   2.727660   0.000000   0.000000
                                        }
                                    }
                                }
                            }
                            JOINT LeftFinger3
                            {
                                OFFSET   7.899780   0.000015  -1.078090
                                CHANNELS 3 Zrotation Xrotation Yrotation
                                JOINT LeftFinger31
                                {
                                    OFFSET   4.646920   0.000000   0.000000
                                    CHANNELS 3 Zrotation Xrotation Yrotation
                                    JOINT LeftFinger32
                                    {
                                        OFFSET   2.323470   0.000000   0.000000
                                        CHANNELS 3 Zrotation Xrotation Yrotation
                                        End Site
                                        {
                                            OFFSET   2.273050   0.000000   0.000000
                                        }
                                    }
                                }
                            }
                            JOINT LeftFinger4
                            {
                                OFFSET   7.435090   0.000000  -3.252850
                                CHANNELS 3 Zrotation Xrotation Yrotation
                                JOINT LeftFinger41
                                {
                                    OFFSET   3.717550   0.000000   0.000000
                                    CHANNELS 3 Zrotation Xrotation Yrotation
                                    JOINT LeftFinger42
                                    {
                                        OFFSET   1.858760   0.000000   0.000000
                                        CHANNELS 3 Zrotation Xrotation Yrotation
                                        End Site
                                        {
                                            OFFSET   1.818440   0.000000   0.000000
                                        }
                                    }
                                }
                            }
                        }
                    }
                }
            }
            JOINT RightCollar
            {
                OFFSET  -3.911900  19.017000  -0.467062
                CHANNELS 3 Zrotation Xrotation Yrotation
                JOINT RightShoulder
                {
                    OFFSET -10.383700   0.000015   0.000000
                    CHANNELS 3 Zrotation Xrotation Yrotation
                    JOINT RightElbow
                    {
                        OFFSET -26.662100   0.001341   0.000385
                        CHANNELS 3 Zrotation Xrotation Yrotation
                        JOINT RightWrist
                        {
                            OFFSET -28.869000   0.000025  -0.000080
                            CHANNELS 3 Zrotation Xrotation Yrotation
                            JOINT RightFinger0
                            {
                                OFFSET  -2.044650  -2.323490   3.252850
                                CHANNELS 3 Zrotation Xrotation Yrotation
                                JOINT RightFinger01
                                {
                                    OFFSET  -3.088130   0.000000   0.000000
                                    CHANNELS 3 Zrotation Xrotation Yrotation
                                    JOINT RightFinger02
                                    {
                                        OFFSET  -2.639460   0.000000   0.000000
                                        CHANNELS 3 Zrotation Xrotation Yrotation
                                        End Site
                                        {
                                            OFFSET  -2.582190   0.000000   0.000000
                                        }
                                    }
                                }
                            }
                            JOINT RightFinger1
                            {
                                OFFSET  -8.364480   0.000000   3.252850
                                CHANNELS 3 Zrotation Xrotation Yrotation
                                JOINT RightFinger11
                                {
                                    OFFSET  -4.646930   0.000000   0.000000
                                    CHANNELS 3 Zrotation Xrotation Yrotation
                                    JOINT RightFinger12
                                    {
                                        OFFSET  -2.323470   0.000000   0.000000
                                        CHANNELS 3 Zrotation Xrotation Yrotation
                                        End Site
                                        {
                                            OFFSET  -2.273050   0.000000   0.000000
                                        }
                                    }
                                }
                            }
                            JOINT RightFinger2
                            {
                                OFFSET  -8.364480   0.000000   1.078090
                                CHANNELS 3 Zrotation Xrotation Yrotation
                                JOINT RightFinger21
                                {
                                    OFFSET  -5.111610   0.000000   0.000000
                                    CHANNELS 3 Zrotation Xrotation Yrotation
                                    JOINT RightFinger22
                                    {
                                        OFFSET  -2.788160   0.000000   0.000000
                                        CHANNELS 3 Zrotation Xrotation Yrotation
                                        End Site
                                        {
                                            OFFSET  -2.727660   0.000000   0.000000
                                        }
                                    }
                                }
                            }
                            JOINT RightFinger3
                            {
                                OFFSET  -7.899780   0.000000  -1.078090
                                CHANNELS 3 Zrotation Xrotation Yrotation
                                JOINT RightFinger31
                                {
                                    OFFSET  -4.646920   0.000000   0.000000
                                    CHANNELS 3 Zrotation Xrotation Yrotation
                                    JOINT RightFinger32
                                    {
                                        OFFSET  -2.323470   0.000000   0.000000
                                        CHANNELS 3 Zrotation Xrotation Yrotation
                                        End Site
                                        {
                                            OFFSET  -2.273050   0.000000   0.000000
                                        }
                                    }
                                }
                            }
                            JOINT RightFinger4
                            {
                                OFFSET  -7.435090   0.000000  -3.252850
                                CHANNELS 3 Zrotation Xrotation Yrotation
                                JOINT RightFinger41
                                {
                                    OFFSET  -3.717550   0.000000   0.000000
                                    CHANNELS 3 Zrotation Xrotation Yrotation
                                    JOINT RightFinger42
                                    {
                                        OFFSET  -1.858770   0.000000   0.000000
                                        CHANNELS 3 Zrotation Xrotation Yrotation
                                        End Site
                                        {
                                            OFFSET  -1.818440   0.000000   0.000000
                                        }
                                    }
                                }
                            }
                        }
                    }
                }
            }
        }
    }
    JOINT LeftHip
    {
        OFFSET   9.783010   0.000000   0.000000
        CHANNELS 3 Zrotation Xrotation Yrotation
        JOINT LeftKnee
        {
            OFFSET   0.000070 -41.789100   0.000028
            CHANNELS 3 Zrotation Xrotation Yrotation
            JOINT LeftAnkle
            {
                OFFSET   0.000087 -41.133200  -0.000100
                CHANNELS 3 Zrotation Xrotation Yrotation
                JOINT LeftToe
                {
                    OFFSET   0.000000  -6.358960  14.674500
                    CHANNELS 3 Zrotation Xrotation Yrotation
                    End Site
                    {
                        OFFSET   0.000000   0.000000   3.913200
                    }
                }
            }
        }
    }
    JOINT RightHip
    {
        OFFSET  -9.783020   0.000000   0.000000
        CHANNELS 3 Zrotation Xrotation Yrotation
        JOINT RightKnee
        {
            OFFSET   0.000044 -41.789100  -0.000870
            CHANNELS 3 Zrotation Xrotation Yrotation
            JOINT RightAnkle
            {
                OFFSET  -0.000090 -41.133200  -0.000245
                CHANNELS 3 Zrotation Xrotation Yrotation
                JOINT RightToe
                {
                    OFFSET   0.000000  -6.358960  14.674500
                    CHANNELS 3 Zrotation Xrotation Yrotation
                    End Site
                    {
                        OFFSET   0.000000   0.000000   3.913200
                    }
                }
            }
        }
    }
}
MOTION
Frames: 6
Frame Time:   0.016667
 -1.188290  89.500800  -2.589120  -0.040210 -12.654600  -0.633354   0.025313  23.766700  -0.604953   0.420712  47.531400  -1.440070   3.148070 -14.621500   0.798095   6.201160 -29.368900  16.855700  -6.157680  -9.984610   7.941510 -67.707800  12.995000 -65.818000   0.504248 -12.469800 -56.449000 -14.676400 -84.434300 -13.795400  41.543000  25.642700 -61.397500 -19.939800  -0.003637   0.002291  -4.969910   0.011464   0.000309 -29.749700  -1.617340   2.828660 -24.371700   0.002260  -0.000740 -17.060200   0.004676  -0.008522 -28.542900  -3.842890   7.016390 -41.290300   0.004347   0.000591 -27.499300   0.002673   0.005163 -28.036100  -4.197990   7.826710 -34.410300   0.003048  -0.000442 -22.917300   0.004625   0.005059 -29.532400  -8.786090  15.088900 -46.046200  -0.007467   0.000951 -30.666800   0.004516  -0.008545   2.013160  -6.192640  13.561100  64.622700   5.914000  73.171100  -4.672200 -18.940400  54.014700 -60.093900 -75.144700 -42.446200 -41.302700  38.192900  81.141400  11.015400   0.001089  -0.000159   0.507705   0.004316   0.002689  27.809800  -1.905850  -3.623480  22.802600   0.007981  -0.000075  15.961800   0.003832  -0.000826  27.755600  -2.863910  -5.440170  29.370800   0.005556  -0.004122  19.560900   0.004043  -0.002364  27.842600  -5.120280  -9.590750  33.822500   0.004518   0.000491  22.525800   0.003426  -0.003924  31.662600  -5.750490  -9.229810  48.190300  -0.000269  -0.001047  32.094800   0.001569  -0.010568   3.219120  11.088500   3.512710   0.185192   3.957920  11.528500  -3.971730  -1.076290   0.380911  -0.000000   0.000000   0.000000  -1.978390   9.039580  -8.421800  -1.085030   6.621090  -9.235770   1.336420  -1.832300   2.876770  -0.000000   0.000000   0.000000
 -1.225630  89.504900  -2.517300  -0.062487 -12.584200  -0.644159   0.007456  23.762800  -0.594541   0.372780  47.523900  -1.405550   3.124750 -14.746400   0.797643   6.174710 -29.623700  16.879200  -6.187830 -10.028800   7.888400 -67.769500  12.976100 -65.718900   0.510001 -12.513200 -56.503500 -13.875800 -84.309000 -13.100600  41.617900  25.672500 -61.459400 -19.822300  -0.003634   0.002317  -4.911150   0.011523   0.000309 -29.744500  -1.511100   2.638090 -24.367400   0.002297  -0.000760 -17.057100   0.004664  -0.008565 -28.536900  -3.842610   7.021220 -41.244800   0.004414   0.000577 -27.469000   0.002786   0.005202 -28.031300  -4.133970   7.711510 -34.300400   0.003116  -0.000372 -22.844100   0.004701   0.005077 -29.526600  -8.705130  14.982500 -46.013700  -0.007532   0.000931 -30.645100   0.004485  -0.008633   1.982460  -6.240070  13.563200  64.710900   5.939570  73.139500  -4.623570 -19.036900  54.171400 -58.987000 -75.192500 -41.224700 -41.638000  38.752500  81.769600  10.700200   0.001094  -0.000079   0.350078   0.004311   0.002677  26.735200  -1.648660  -3.271690  21.912500   0.008008  -0.000074  15.338800   0.003816  -0.000736  27.361500  -2.605430  -5.017900  27.971600   0.005553  -0.004141  18.629100   0.004043  -0.002361  27.639700  -5.136130  -9.701820  32.442900   0.004539   0.000494  21.607000   0.003453  -0.003922  31.030000  -5.702650  -9.382900  47.246900  -0.000310  -0.000993  31.466500   0.001575  -0.010600   3.261610  11.061500   3.512700   0.188826   3.979910  11.527000  -4.001850  -1.121950   0.383045   0.000000   0.000000   0.000000  -1.959180   9.008340  -8.463090  -1.037500   6.628270  -9.271840   1.276460  -1.866910   2.955130  -0.000000   0.000000   0.000000
 -1.262800  89.508400  -2.444090  -0.083115 -12.517800  -0.645561  -0.006074  23.757700  -0.590806   0.338098  47.513900  -1.387810   3.102440 -14.868300   0.797114   6.149810 -29.872300  16.908400  -6.218550 -10.064400   7.841760 -67.830400  12.930800 -65.612600   0.533397 -12.522000 -56.581600 -13.082500 -84.181800 -12.428000  41.686100  25.733600 -61.549200 -19.729800  -0.003631   0.002342  -4.864890   0.011582   0.000308 -29.749800  -1.383930   2.408110 -24.366800   0.002334  -0.000778 -17.056700   0.004649  -0.008608 -28.532900  -3.840850   7.023270 -41.228100   0.004479   0.000567 -27.457900   0.002901   0.005239 -28.035400  -4.078850   7.608300 -34.253400   0.003183  -0.000301 -22.812800   0.004775   0.005094 -29.539200  -8.660670  14.880700 -46.009100  -0.007596   0.000911 -30.642000   0.004453  -0.008719   1.970750  -6.276590  13.570500  64.779300   5.964420  73.072600  -4.660430 -19.087600  54.402800 -57.831200 -75.061700 -39.862400 -42.176600  39.259700  82.341100  10.504100   0.001098  -0.000000   0.252027   0.004306   0.002666  25.673600  -1.411490  -2.939050  21.035700   0.008039  -0.000065  14.725000   0.003797  -0.000644  26.709700  -2.372870  -4.706280  26.699200   0.005553  -0.004152  17.781700   0.004043  -0.002360  27.423100  -5.147210  -9.811190  31.127400   0.004561   0.000496  20.730900   0.003482  -0.003920  30.361300  -5.645190  -9.536260  46.248200  -0.000350  -0.000936  30.801300   0.001582  -0.010629   3.304170  11.045900   3.512980   0.192312   3.991270  11.525300  -4.032150  -1.160360   0.383354   0.000000   0.000000   0.000000  -1.936340   8.982430  -8.504790  -0.991562   6.632400  -9.315520   1.210510  -1.899690   3.025120   0.000000   0.000000  -0.000000
 -1.300060  89.511500  -2.367050  -0.095965 -12.460500  -0.635174  -0.019959  23.750900  -0.589832   0.305783  47.500500  -1.379200   3.080560 -14.980100   0.796986   6.124140 -30.100500  16.935300  -6.247090 -10.092600   7.794070 -67.880300  12.855300 -65.494700   0.590241 -12.492200 -56.649900 -12.479600 -84.063400 -11.985000  41.854900  25.948700 -61.703300 -19.650100  -0.003649   0.002358  -4.825030   0.011664   0.000300 -30.051600  -1.109550   1.938980 -24.599400   0.002371  -0.000789 -17.219600   0.004636  -0.008653 -28.601600  -3.822840   6.973090 -41.687500   0.004549   0.000581 -27.763900   0.003020   0.005260 -28.083300  -4.036840   7.515000 -34.649600   0.003259  -0.000241 -23.076600   0.004835   0.005117 -29.753800  -8.660130  14.736100 -46.307700  -0.007666   0.000918 -30.840900   0.004428  -0.008817   1.981590  -6.306580  13.600000  64.845500   5.970050  72.987300  -4.806870 -19.070200  54.628100 -57.258700 -74.750800 -39.011100 -42.578200  39.487600  82.559300  10.552500   0.001093  -0.000111   0.276263   0.004306   0.002661  24.750500  -1.258550  -2.751630  20.275200   0.008073  -0.000028  14.192700   0.003774  -0.000569  25.932700  -2.230740  -4.619270  25.864800   0.005552  -0.002789  17.226000   0.004050  -0.002358  27.214800  -5.151970  -9.907680  30.008400   0.004588   0.000501  19.985600   0.003509  -0.003917  29.711200  -5.581170  -9.675110  45.275500  -0.000395  -0.000869  30.153400   0.001581  -0.010663   3.338940  11.045500   3.513280   0.195116   3.990410  11.535600  -4.062590  -1.187570   0.366998   0.000000   0.000000   0.000000  -1.908120   8.969390  -8.535630  -0.959311   6.632920  -9.337050   1.146550  -1.931190   3.055910  -0.000000   0.000000   0.000000
 -1.335420  89.514800  -2.289710  -0.105294 -12.406300  -0.623941  -0.031912  23.742700  -0.588850   0.275694  47.484200  -1.367450   3.054240 -15.085700   0.795657   6.088660 -30.316900  16.943600  -6.274970 -10.113800   7.747170 -67.901300  12.751800 -65.378000   0.678313 -12.416800 -56.712000 -11.468400 -83.915400 -11.120800  42.046800  26.248500 -61.794000 -19.611400  -0.003674   0.002374  -4.805700   0.011746   0.000293 -30.511200  -0.919190   1.580150 -24.968800   0.002408  -0.000801 -17.478200   0.004622  -0.008698 -28.691800  -3.794070   6.893990 -42.436400   0.004620   0.000594 -28.262600   0.003141   0.005279 -28.148700  -4.017410   7.466700 -35.193300   0.003333  -0.000184 -23.438700   0.004894   0.005141 -29.958700  -8.662740  14.646400 -46.606300  -0.007736   0.000926 -31.039800   0.004405  -0.008920   1.994180  -6.333570  13.638800  64.924300   5.948670  72.903000  -4.988330 -19.036100  54.827600 -57.033000 -74.393500 -38.490400 -42.713500  39.548400  82.589900  10.705700   0.001088  -0.000222   0.352891   0.004306   0.002659  24.041100  -1.194560  -2.681890  19.692900   0.008107  -0.000000  13.785000   0.003752  -0.000489  25.240800  -2.174940  -4.606730  25.319500   0.005552  -0.000907  16.862800   0.004057  -0.002358  27.038600  -5.152260  -9.985170  29.132600   0.004615   0.000507  19.402300   0.003538  -0.003916  29.153500  -5.522000  -9.788890  44.440000  -0.000421  -0.000800  29.597000   0.001577  -0.010701   3.368560  11.045000   3.513440   0.197101   3.989400  11.556600  -4.092580  -1.208900   0.339119  -0.000000   0.000000  -0.000000  -1.880360   8.957610  -8.550210  -0.935363   6.633570  -9.352240   1.085050  -1.962980   3.063390   0.000000   0.000000   0.000000
 -1.366600  89.519000  -2.214160  -0.113094 -12.351700  -0.622809  -0.042408  23.732100  -0.580868   0.246848  47.463300  -1.339470   3.017810 -15.184400   0.791200   6.031800 -30.521800  16.914800  -6.305320 -10.125300   7.699580 -67.890200  12.613900 -65.269900   0.808771 -12.172700 -56.746800  -9.215680 -83.660000  -8.957000  42.260500  26.646600 -61.698400 -19.765500  -0.003684   0.002395  -4.882760   0.011812   0.000296 -30.896300  -0.915533   1.526670 -25.283600   0.002446  -0.000823 -17.698500   0.004610  -0.008739 -28.721000  -3.762360   6.828410 -43.134900   0.004686   0.000591 -28.727800   0.003257   0.005310 -28.156800  -4.197760   7.798920 -35.387000   0.003396  -0.000123 -23.567700   0.004962   0.005166 -29.890600  -8.772900  14.864800 -46.552100  -0.007800   0.000922 -31.003700   0.004387  -0.009029   2.016170  -6.358070  13.663900  64.920300   5.904580  72.858900  -5.156550 -19.032400  54.953000 -57.458400 -74.024800 -38.679400 -42.764300  39.441500  82.431400  10.998500   0.001088  -0.000206   0.499292   0.004301   0.002655  23.736000  -1.209850  -2.736830  19.444200   0.008135   0.000000  13.610900   0.003737  -0.000391  24.958500  -2.190670  -4.672170  25.052300   0.005554  -0.000297  16.684800   0.004055  -0.002382  26.935000  -5.151560 -10.029100  28.645200   0.004638   0.000511  19.077700   0.003568  -0.003917  28.811000  -5.483010  -9.855480  43.926100  -0.000044  -0.000739  29.254800   0.001569  -0.010749   3.391890  11.042700   3.512330   0.199680   3.991110  11.584100  -4.120980  -1.226840   0.309399  -0.000000   0.000000   0.000000  -1.856650   8.944180  -8.542590  -0.916603   6.640620  -9.370890   1.028710  -1.994950   3.061010  -0.000000   0.000000   0.000000
